<?xml version="1.0" encoding="utf-8" ?>
<svg xmlns="http://www.w3.org/2000/svg" viewBox="0 0 286 319">
<g>
<path fill="#FFFFFF" transform="translate(-622 -324)" d="M813.03 341.127L896.86 341.119C896.351 373.123 896.789 406.057 896.838 438.117L896.982 547.871L840.595 465.134C832.023 452.504 823.353 439.914 814.929 427.184C813.238 424.629 812.913 423.258 813.055 420.231L813.125 369.322L813.03 341.127Z"/><path fill="#FFFFFF" transform="translate(-622 -324)" d="M813.03 341.127L896.86 341.119C896.351 373.123 896.789 406.057 896.838 438.117L896.982 547.871L840.595 465.134C832.023 452.504 823.353 439.914 814.929 427.184C813.238 424.629 812.913 423.258 813.055 420.231C838.847 462.039 868.762 501.386 895.043 542.809C895.568 520.192 895.168 496.018 895.159 473.26L895.179 342.978C868.287 342.79 841.394 342.79 814.502 342.978C814.352 352.152 814.335 360.176 813.125 369.322L813.03 341.127Z"/><path fill="#FFFFFF" transform="translate(-622 -324)" d="M631.235 341.119L713.912 341.151C756.489 406.192 801.469 470.841 844.433 535.947L882.166 593.598C884.826 597.701 899.091 620.28 901.283 622.197L900.251 624.157C871.73 623.214 838.949 624.005 810.1 624.012L625.464 341.154L631.235 341.119Z"/><path fill="#FFFFFF" transform="translate(-622 -324)" d="M628.502 342.975C656.618 342.81 684.733 342.786 712.849 342.902C730.131 366.959 747.398 393.961 763.979 418.639C793.815 462.625 823.349 506.814 852.58 551.204C858.488 560.175 894.269 617.696 899.705 622.373C891.599 622.899 878.999 622.533 870.455 622.558L810.708 622.563C804.956 612.415 794.078 596.955 787.355 586.8L743.422 520.444L628.502 342.975Z"/><path fill="#1E76FB" transform="translate(-622 -324)" d="M701.95 430.601C709.044 431.517 719.201 433.97 726.387 435.492C739.704 438.266 753.003 441.129 766.282 444.081C778.183 460.488 790.201 481.361 801.979 498.464C806.076 504.414 823.092 530.269 825.469 535.761C804.556 531.41 782.914 527.205 762.157 522.389C746.533 497.341 729.429 472.948 713.205 448.285C709.712 442.977 704.564 436.258 701.95 430.601Z"/><path fill="#FFFFFF" transform="translate(-622 -324)" d="M634.007 620.316L634.051 491.955L634.077 453.574C634.07 447.735 633.699 438.194 634.288 432.816L635.123 432.716L636.525 435.163C659.676 469.245 681.809 504.617 704.972 538.852L705.074 624.024C685.459 624.002 652.886 623.046 634.313 624.278L633.681 621.702L634.007 620.316Z"/><path fill="#FFFFFF" transform="translate(-622 -324)" d="M636.525 435.163C659.676 469.245 681.809 504.617 704.972 538.852L705.074 624.024C685.459 624.002 652.886 623.046 634.313 624.278L633.681 621.702L634.007 620.316L634.57 621.945C637.918 622.669 651.272 622.357 655.85 622.351L703.226 622.247L703.313 570.207C703.377 537.786 706.374 544.175 688.893 517.754L654.202 465.226C650.307 459.287 636.963 440.451 636.525 435.163Z"/></g>
</svg>