<?xml version="1.0" encoding="utf-8" ?>
<svg xmlns="http://www.w3.org/2000/svg" viewBox="10 24 768 168">
<g transform="matrix(1.12313 0 0 1.12313 -454.866 -425.665)">
<path fill="#FFFFFF" d="M987.47 468.79C998.77 439.822 1034.89 430.229 1062.02 441.797C1065.87 443.438 1073.18 450.762 1075.92 450.549L1076.25 447.414C1076.09 443.618 1075.48 443.136 1076.97 440.176C1081.73 437.331 1090.07 439.191 1096.97 439.039C1096.85 468.794 1096.31 502.36 1097.07 532.003L1076.12 531.996C1076.17 528.461 1076.13 524.41 1076.31 520.925L1075.97 519.649L1074.71 519.964C1051.25 552.696 965.888 528.295 987.47 468.79ZM1076.29 496.563C1078.98 473.413 1070.37 455.353 1045.54 454.155C984.68 451.219 1002.44 541.324 1062.78 512.664C1069.45 507.534 1072.37 503.937 1076.29 496.563Z"/><path fill="#FFFFFF" d="M1076.25 447.414C1076.09 443.618 1075.48 443.136 1076.97 440.176C1081.73 437.331 1090.07 439.191 1096.97 439.039C1096.85 468.794 1096.31 502.36 1097.07 532.003L1076.12 531.996C1076.17 528.461 1076.13 524.41 1076.31 520.925C1077.7 524.006 1077.71 526.877 1077.99 530.245L1095.36 530.268C1094.79 527.199 1095.04 507.283 1095.03 502.894L1094.88 441.195C1092.38 441.269 1089.93 441.253 1087.44 441.042C1079.52 440.373 1078.75 440.596 1076.25 447.414Z"/><path fill="#FFFFFF" d="M987.47 468.79C988.281 471.232 987.089 477.082 986.654 479.968C980.998 517.457 1019.76 538.717 1052.7 531.393C1063.7 528.947 1066.94 523.168 1074.71 519.964C1051.25 552.696 965.888 528.295 987.47 468.79Z"/><path fill="#FFFFFF" d="M1062.78 512.664C1058.96 519.992 1043.21 520.962 1035.59 519.58C1004.18 513.886 994.244 476.058 1021.44 457.664C1037.59 446.746 1064.06 452.095 1074.48 469.212C1077.77 474.622 1082.14 493.122 1076.29 496.563C1078.98 473.413 1070.37 455.353 1045.54 454.155C984.68 451.219 1002.44 541.324 1062.78 512.664Z"/><path fill="#FFFFFF" d="M822.054 445.34C838.491 436.507 857.719 434.415 875.67 439.507C901.963 447.034 920.445 471.703 911.691 499.293C901.468 531.513 863.079 539.719 833.826 531.161C805.924 522.998 789.268 492.721 803.034 465.728C807.128 457.138 813.77 450.019 822.054 445.34ZM889.548 495.404C890.172 489.655 890.615 486.379 889.72 480.609C885.615 454.164 851.363 446.172 832.166 462.046C825.792 467.236 821.742 474.749 820.912 482.929C819.152 501.641 834.688 516.404 852.781 517.669C855.37 517.838 857.967 517.868 860.56 517.76C876.988 513.895 881.862 510.356 889.548 495.404Z"/><path fill="#FFFFFF" d="M822.054 445.34C838.491 436.507 857.719 434.415 875.67 439.507C901.963 447.034 920.445 471.703 911.691 499.293C901.468 531.513 863.079 539.719 833.826 531.161C805.924 522.998 789.268 492.721 803.034 465.728C803.894 468.486 801.533 474.152 800.952 477.565C789.131 546.964 911.931 552.522 911.781 485.098C911.701 449.598 872.469 433.096 841.962 439.917C836.584 441.12 827.019 445.364 822.054 445.34Z"/><path fill="#FFFFFF" d="M860.56 517.76C859.525 518.541 858.192 519.267 856.882 519.356C827.871 521.313 807.159 488.411 826.809 464.834C839.773 449.279 866.245 448.149 881.01 461.317C887.586 467.193 891.515 475.475 891.908 484.286C892.046 487.702 891.912 492.839 889.548 495.404C890.172 489.655 890.615 486.379 889.72 480.609C885.615 454.164 851.363 446.172 832.166 462.046C825.792 467.236 821.742 474.749 820.912 482.929C819.152 501.641 834.688 516.404 852.781 517.669C855.37 517.838 857.967 517.868 860.56 517.76Z"/><path fill="#FFFFFF" d="M413.208 400.11C428.793 399.523 447.078 399.973 462.867 399.967C487.274 435.471 509.91 472.899 534.181 508.576C543.131 521.734 553.651 537.116 561.513 550.722C543.623 550.461 525.337 550.668 507.418 550.688L446.906 454.727C437.304 439.573 421.131 415.698 413.208 400.11Z"/><path fill="#FFFFFF" d="M416.037 402.164L461.316 402.046C466.55 407.467 476.526 423.823 481.165 430.973L509.245 473.626L539.616 519.954C544.401 527.142 554.885 542.029 558.389 549.024C541.744 549.114 525.098 549.117 508.452 549.031C504.376 543.526 499.518 535.114 495.724 529.033L474.364 495.161C455.373 465.216 433.667 432.552 416.037 402.164Z"/><path fill="#3658F3" d="M455.016 450.475C462.758 451.403 482.347 456.195 490.851 458.039C501.376 474.998 511.803 492.018 522.132 509.098C511.975 507.414 497.948 503.961 487.592 501.761C478.536 486.749 465.217 464.6 455.016 450.475Z"/><path fill="#FFFFFF" d="M622.403 443.568C633.724 436.488 654.056 435.347 666.898 438.514C693.894 445.173 703.548 464.454 703.774 490.045L692.743 489.875C669.802 490.548 642.83 490.271 619.798 489.862C625.764 516.138 645.649 522.99 669.999 514.5C677.384 509.648 678.366 506.476 682.407 503.454C686.014 502.611 699.296 503.011 703.815 503.072C698.599 515.005 691.922 523.713 679.665 529.164C637.929 547.725 581.2 517.724 600.555 467.182C600.717 466.758 600.89 466.338 601.074 465.922C604.967 457.134 613.279 447.189 622.403 443.568ZM620.693 475.024L655.875 474.948L682.295 474.988C676.99 458.161 666.074 453.213 649.166 453.39C633.689 454.951 626.258 460.467 620.693 475.024Z"/><path fill="#FFFFFF" d="M600.555 467.182C600.537 471.968 599.495 476.83 598.922 481.578C597.271 494.889 601.576 507.227 610.77 516.934C621.656 528.428 637.016 532.664 652.454 532.837C674.058 533.079 691.999 525.035 701.239 504.955C696.667 504.98 685.842 505.701 682.407 503.454C686.014 502.611 699.296 503.011 703.815 503.072C698.599 515.005 691.922 523.713 679.665 529.164C637.929 547.725 581.2 517.724 600.555 467.182Z"/><path fill="#FFFFFF" d="M622.403 443.568C633.724 436.488 654.056 435.347 666.898 438.514C693.894 445.173 703.548 464.454 703.774 490.045L692.743 489.875C696.06 487.94 699.031 489.273 701.621 487.439C704.622 474.874 694.809 455.215 684.237 448.005C669.739 438.118 652.722 436.971 635.814 440.288C631.132 441.206 627.039 442.931 622.403 443.568Z"/><path fill="#FFFFFF" d="M669.999 514.5C661.324 525.325 633.611 518.509 626.134 508.998C623.62 505.799 617.421 494.036 618.997 489.786L619.798 489.862C625.764 516.138 645.649 522.99 669.999 514.5Z"/><path fill="#FFFFFF" d="M702.861 438.956L730.364 439.025C738.009 449.228 745.185 459.992 752.899 470.229C756.199 463.454 767.276 449.054 772.344 442.168C774.273 439.853 774.199 439.326 777.667 439.037C785.492 438.384 793.315 439.126 801.153 438.976L766.372 484.643C777.299 498.698 792.482 518.799 804.1 531.912L777.135 531.952C769.285 521.376 760.549 510.048 753.076 499.304C745.121 510.282 737.039 521.167 728.829 531.957C724.878 531.977 705.489 532.302 702.845 531.743C702.95 530.106 704.901 528.162 706.026 526.771C712.719 517.983 727.106 498.082 734.332 490.404L738.422 485.014C726.763 469.778 714.885 453.841 702.861 438.956Z"/><path fill="#FFFFFF" d="M772.344 442.168C774.273 439.853 774.199 439.326 777.667 439.037C785.492 438.384 793.315 439.126 801.153 438.976L766.372 484.643C777.299 498.698 792.482 518.799 804.1 531.912L777.135 531.952C769.285 521.376 760.549 510.048 753.076 499.304C745.121 510.282 737.039 521.167 728.829 531.957C724.878 531.977 705.489 532.302 702.845 531.743C702.95 530.106 704.901 528.162 706.026 526.771C706.01 529.187 705.609 528.199 707.045 529.912C712.276 531.094 722.244 530.416 727.966 530.261C732.827 524.534 748.391 500.711 752.777 499.464C757.437 500.22 773.982 524.923 777.866 530.189C785.325 530.365 792.787 530.347 800.244 530.133C787.979 515.249 776.029 500.109 764.4 484.723C773.886 470.62 788.279 455.034 797.154 440.804C787.243 441.055 782.132 440.295 772.344 442.168Z"/><path fill="#FFFFFF" d="M702.861 438.956L730.364 439.025C738.009 449.228 745.185 459.992 752.899 470.229L753.086 471.007L752.182 471.494C749.023 468.552 734.33 447.037 729.756 441.273C722.348 441.178 714.045 441.245 706.752 440.6C715.807 453.694 729.866 470.036 739.026 483.493C739.058 484.481 739.086 485.316 739.108 486.001C738.049 488.261 736.698 489.362 734.332 490.404L738.422 485.014C726.763 469.778 714.885 453.841 702.861 438.956Z"/><path fill="#FFFFFF" d="M513.205 400.033C528.716 399.77 544.882 399.994 560.447 399.982L560.611 514.787C555.176 507.685 548.136 496.027 543.165 488.222C533.322 472.627 533.354 457.11 513.262 441.675C513.673 428.683 513.615 412.995 513.205 400.033Z"/><path fill="#FFFFFF" d="M515.047 402.014C529.581 402.178 544.117 402.191 558.651 402.053C559.514 435.625 559.06 475.236 558.68 509.012C543.99 488.98 530.255 463.181 515.312 442.217C514.625 430.465 515.071 414.108 515.047 402.014Z"/><path fill="#FFFFFF" d="M967.853 438.393C972.257 436.99 976.789 437.129 981.419 437.03L981.254 456.674C946.855 460.239 947.394 476.699 947.849 507.089C947.969 515.118 947.935 523.882 947.984 531.946L924.961 532.018C925.508 503.176 925.655 467.89 924.904 439.107L947.094 438.973C947.061 444.405 947.183 450.806 946.969 456.157C953.239 452.191 951.423 441.352 967.853 438.393Z"/><path fill="#FFFFFF" d="M967.853 438.393C972.257 436.99 976.789 437.129 981.419 437.03L981.254 456.674C946.855 460.239 947.394 476.699 947.849 507.089C947.969 515.118 947.935 523.882 947.984 531.946L924.961 532.018C925.508 503.176 925.655 467.89 924.904 439.107L947.094 438.973C947.061 444.405 947.183 450.806 946.969 456.157C944.7 453.584 945.429 445.028 945.504 441.308L927.015 441.327C926.562 470.596 927.008 500.697 926.865 530.106C933.027 530.277 939.787 530.156 946 530.173C946.258 521.383 946.155 511.35 946.003 502.548C945.476 472.095 948.021 460.057 979.436 455.157C979.458 450.973 980.121 445.088 979.507 441.216C975.729 437.198 972.901 439.801 967.853 438.393Z"/><path fill="#FFFFFF" d="M416.181 450.524C418.958 453.547 427.11 467.081 429.748 471.266C438.858 485.538 447.869 499.872 456.781 514.269C456.697 526.405 456.789 538.542 457.056 550.675L416.176 550.682L416.181 450.524Z"/><path fill="#FFFFFF" d="M416.574 455.872C421.843 460.432 449.476 505.313 455.104 514.406C455.377 525.538 455.161 537.667 455.181 548.877C449.066 549.775 424.913 549.113 417.806 549.043C417.446 523.147 419.306 480.479 416.574 455.872Z"/></g>
</svg>